<svg xmlns="http://www.w3.org/2000/svg" width="384" height="24">
    <style>
        .f { fill: #000; }
        @media (prefers-color-scheme: dark) {
            .f { fill: #fff; }
        }
    </style>
    <g class="f" fill-opacity=".95" fill-rule="evenodd">
        <g fill-rule="nonzero">
            <path
                d="M252.813 4.79v15.789h1.93V4.789zm1.067 1.804h3.247q1.544 0 2.508.733.965.733.965 2.2 0 1.443-.965 2.187-.965.745-2.508.745h-3.247v1.804h3.247q1.543 0 2.758-.575a4.67 4.67 0 0 0 1.93-1.647q.715-1.07.715-2.515 0-1.466-.715-2.526a4.7 4.7 0 0 0-1.93-1.635q-1.216-.576-2.758-.576h-3.247zM267.251 15.56l3.368 5.019h2.157l-3.595-5.019zm-2.194-5.507v10.526h1.797V10.053zm1.07 1.541h2.127q.617 0 1.076.209t.718.601.257.957q0 .56-.257.955-.258.394-.718.603-.46.21-1.076.209h-2.127v1.466h2.203q1.161 0 2.013-.404a3.1 3.1 0 0 0 1.324-1.145q.473-.741.473-1.722 0-.996-.473-1.729a3.13 3.13 0 0 0-1.324-1.137q-.852-.404-2.013-.404h-2.203zM275.78 15.316q0-1.087.464-1.93a3.47 3.47 0 0 1 1.277-1.331q.814-.487 1.862-.487 1.071 0 1.877.487t1.266 1.33.46 1.93q0 1.083-.464 1.93a3.5 3.5 0 0 1-1.272 1.332q-.807.487-1.867.487-1.049 0-1.862-.487a3.46 3.46 0 0 1-1.277-1.333q-.463-.845-.463-1.928m-1.903 0q0 1.173.409 2.178a5.2 5.2 0 0 0 2.9 2.897 5.7 5.7 0 0 0 2.197.414q1.2 0 2.202-.414a5.3 5.3 0 0 0 1.745-1.152 5.2 5.2 0 0 0 1.15-1.745q.409-1.005.409-2.178 0-1.185-.41-2.179a5.1 5.1 0 0 0-1.157-1.725 5.35 5.35 0 0 0-1.746-1.14 5.8 5.8 0 0 0-2.193-.407q-1.173 0-2.18.408a5.3 5.3 0 0 0-1.752 1.139 5.2 5.2 0 0 0-1.16 1.725 5.6 5.6 0 0 0-.414 2.179M284.832 21.898l-.957 1.313q.197.168.534.35.336.18.777.31.44.129.91.129a4 4 0 0 0 1.115-.147q.512-.146.887-.458t.58-.795q.207-.483.207-1.156V10.053h-1.835v11.071q0 .71-.331 1.004-.331.293-.68.293a1.7 1.7 0 0 1-.696-.145 1.4 1.4 0 0 1-.51-.378M292.76 20.579h5.343v-1.56h-5.343zm0-8.966h5.343v-1.56h-5.343zm0 4.098h5.04v-1.542h-5.04zm-1.108-5.658v10.526h1.76V10.053zM302.05 15.316q0-1.128.507-1.959a3.61 3.61 0 0 1 3.122-1.755q.758 0 1.364.193.607.194 1.098.534.49.34.845.769v-2.113a4.8 4.8 0 0 0-1.428-.835q-.774-.285-1.94-.285-1.172 0-2.177.396-1.005.397-1.75 1.128a5.2 5.2 0 0 0-1.162 1.731 5.7 5.7 0 0 0-.416 2.196q0 1.196.416 2.195a5.2 5.2 0 0 0 1.162 1.731q.745.732 1.75 1.128 1.005.397 2.178.397 1.165 0 1.939-.288.774-.287 1.428-.832v-2.113a4.17 4.17 0 0 1-1.943 1.3 4.4 4.4 0 0 1-1.364.196 3.6 3.6 0 0 1-3.122-1.761q-.507-.837-.507-1.953M310.088 11.688h2.8v8.891h1.798v-8.891h2.8v-1.635h-7.398zM325.436 12.684q0-1.85.829-3.237a6.1 6.1 0 0 1 2.168-2.176 5.6 5.6 0 0 1 2.906-.79q1.136 0 2.077.293.943.293 1.715.824.771.53 1.316 1.23V6.3a6.8 6.8 0 0 0-2.18-1.309q-1.179-.428-2.928-.428a8 8 0 0 0-3.099.598 7.7 7.7 0 0 0-2.531 1.691 7.9 7.9 0 0 0-1.703 2.583q-.613 1.489-.613 3.248t.613 3.248a7.9 7.9 0 0 0 1.703 2.583 7.7 7.7 0 0 0 2.531 1.692 8 8 0 0 0 3.1.598q1.747 0 2.928-.43a6.8 6.8 0 0 0 2.18-1.307V16.54a5.9 5.9 0 0 1-1.317 1.23 6.3 6.3 0 0 1-1.715.823 7 7 0 0 1-2.077.293 5.6 5.6 0 0 1-2.906-.79 6.1 6.1 0 0 1-2.168-2.187q-.83-1.4-.829-3.226M346.524 17.015l-5.222-12.226h-2.157l7.379 16.579 7.379-16.579h-2.157zM357.758 15.797l-1.544 1.038a8.8 8.8 0 0 0 1.351 1.95 6.6 6.6 0 0 0 1.93 1.467 5.26 5.26 0 0 0 2.395.553q.954 0 1.828-.316a5.1 5.1 0 0 0 1.567-.903 4.2 4.2 0 0 0 1.09-1.42q.397-.835.397-1.873 0-1.083-.386-1.86a4.5 4.5 0 0 0-.988-1.331 6 6 0 0 0-1.305-.914q-.704-.36-1.34-.586-1.385-.474-2.19-.96-.807-.483-1.147-1.037a2.26 2.26 0 0 1-.34-1.207q0-.766.59-1.387.59-.62 1.884-.62.93 0 1.578.36.647.362 1.1.926.455.564.75 1.15l1.658-.947a6.4 6.4 0 0 0-1.068-1.59 5.5 5.5 0 0 0-1.646-1.241q-.964-.485-2.259-.485-1.34 0-2.383.53a4.1 4.1 0 0 0-1.635 1.455q-.59.925-.59 2.098 0 1.081.42 1.827.42.744 1.078 1.252.658.507 1.385.834.726.327 1.317.53.908.316 1.714.71.805.396 1.305 1.027t.5 1.692q0 1.083-.772 1.782t-2.043.699q-.954 0-1.703-.406t-1.351-1.128a12 12 0 0 1-1.147-1.669M372.466 15.842h8.4l-.68-1.804h-7.038zm4.155-7.489 2.725 6.361.181.451 2.316 5.414H384L376.621 4l-7.379 16.579h2.157l2.362-5.549.181-.406z" />
        </g>
        <path
            d="m13.979 0 13.979 24h-9.19v-2.506h4.811l-4.449-7.638L13.979 24 8.837 13.856l2.5.019 2.642 5.549 2.66-5.549 2.491-.019-5.151-8.845-9.602 16.483h4.859V24H0z" />
    </g>
</svg>